<?xml version="1.0" standalone="no"?>
<!DOCTYPE svg PUBLIC "-//W3C//DTD SVG 20010904//EN"
 "http://www.w3.org/TR/2001/REC-SVG-20010904/DTD/svg10.dtd">
<svg version="1.0" xmlns="http://www.w3.org/2000/svg"
 width="447.000000pt" height="447.000000pt" viewBox="0 0 447.000000 447.000000"
 preserveAspectRatio="xMidYMid meet">
<metadata>
Created by potrace 1.14, written by Peter Selinger 2001-2017
</metadata>
<g transform="translate(0.000000,447.000000) scale(0.100000,-0.100000)"
fill="#000000" stroke="none">
<path d="M2177 4413 c-3 -2 -17 -6 -33 -9 -85 -15 -204 -109 -286 -225 -95
-133 -229 -437 -263 -597 -4 -18 -10 -30 -13 -28 -4 2 -7 -11 -8 -30 0 -19 -3
-36 -6 -39 -3 -4 -23 1 -44 10 -51 22 -213 73 -289 92 -301 73 -516 74 -670 3
-124 -57 -186 -153 -188 -295 -1 -67 5 -128 18 -180 3 -13 15 -45 26 -70 43
-99 57 -135 53 -135 -3 0 4 -10 16 -22 11 -12 20 -26 20 -31 0 -5 9 -22 21
-38 11 -16 18 -29 14 -29 -3 0 4 -10 15 -22 11 -12 18 -28 15 -36 -2 -7 -1
-11 3 -8 4 2 19 -12 32 -32 13 -20 33 -47 44 -59 11 -13 17 -23 13 -23 -3 0
12 -19 33 -42 22 -24 38 -49 35 -55 -2 -7 -1 -12 4 -10 4 1 32 -25 62 -58 30
-33 88 -94 131 -135 l76 -75 -71 -70 c-112 -110 -174 -181 -262 -300 -106
-144 -142 -202 -203 -325 -9 -19 -21 -38 -27 -42 -5 -4 -7 -8 -3 -8 4 0 -4
-27 -18 -60 -25 -63 -58 -199 -50 -208 3 -2 1 -12 -4 -22 -5 -10 -6 -20 -3
-24 4 -4 8 -23 10 -44 9 -107 77 -201 183 -251 33 -16 56 -32 52 -36 -4 -5 -2
-5 4 -2 6 4 44 1 85 -6 41 -7 102 -12 136 -12 41 1 60 -2 55 -9 -3 -6 2 -5 11
3 11 8 44 14 86 15 38 0 67 4 64 9 -4 6 10 8 79 11 14 0 24 3 22 5 -4 4 33 14
145 37 13 3 33 10 43 15 11 6 26 8 34 5 10 -4 12 -2 8 6 -5 8 -2 9 9 5 10 -3
17 -2 17 3 0 6 8 10 18 10 9 0 36 9 58 19 32 15 45 16 54 8 9 -9 11 -9 8 2 -2
7 2 15 8 18 10 3 23 -34 38 -108 2 -8 6 -21 9 -29 15 -36 70 -206 70 -217 0
-7 4 -13 8 -13 11 0 30 -61 22 -74 -3 -6 -3 -8 2 -4 8 7 86 -135 88 -159 0 -7
4 -13 8 -13 13 0 39 -56 31 -66 -4 -5 -3 -6 2 -2 5 4 22 -12 39 -35 17 -23 49
-59 71 -80 23 -21 40 -42 39 -47 -2 -6 0 -9 5 -8 15 3 63 -22 68 -37 3 -8 10
-12 15 -10 5 3 22 -1 39 -10 17 -9 35 -13 40 -10 6 3 10 2 10 -2 0 -5 12 -8
28 -8 15 1 33 -4 41 -9 11 -8 13 -8 8 0 -4 7 7 13 33 17 21 3 53 12 71 21 17
9 36 13 42 9 5 -3 7 -1 3 5 -3 6 3 13 14 17 11 3 20 11 20 16 0 5 5 9 11 9 5
0 7 -6 3 -13 -4 -7 -3 -9 2 -4 5 5 9 12 9 17 0 4 14 21 30 37 69 67 162 196
179 251 4 12 12 20 17 16 5 -3 8 -2 7 3 -1 4 6 29 17 56 14 33 24 45 35 41 11
-4 12 -2 4 6 -14 14 -6 52 9 43 5 -3 7 -2 4 4 -3 5 8 45 24 88 17 44 33 86 35
94 7 34 56 206 59 209 1 1 15 -3 31 -9 16 -7 34 -13 39 -15 61 -18 144 -51
139 -56 -3 -4 3 -4 14 -1 11 2 23 0 26 -6 4 -5 14 -7 23 -4 9 4 14 2 10 -3 -3
-5 7 -9 21 -8 34 1 63 -6 58 -15 -2 -3 19 -7 47 -9 28 -2 55 -6 61 -10 13 -8
18 -9 79 -10 27 -1 46 -5 44 -9 -3 -5 20 -6 50 -5 44 3 54 1 48 -10 -6 -10 -5
-11 6 0 16 15 33 16 23 0 -5 -7 -3 -8 7 -3 7 5 29 10 49 12 74 5 116 11 135
18 11 4 37 13 57 21 28 10 38 11 41 1 4 -8 6 -7 6 3 1 8 21 28 46 44 43 26 92
86 109 131 28 73 27 217 -3 313 -5 18 -10 33 -9 35 2 23 -118 257 -184 356
-44 67 -124 177 -138 191 -3 3 -34 39 -70 80 -36 41 -97 107 -137 146 l-72 71
25 22 c14 12 30 19 36 15 6 -4 8 -3 4 4 -3 6 24 42 61 80 38 38 86 91 108 117
22 27 46 54 53 61 6 7 12 17 12 23 0 6 3 11 8 11 4 0 22 22 41 50 19 27 37 47
41 45 4 -3 7 3 6 13 0 9 5 16 12 14 8 -1 11 2 7 7 -5 9 36 83 55 101 5 5 101
200 121 245 7 18 26 84 36 125 2 8 4 27 5 42 0 16 5 25 11 21 6 -4 7 -1 2 7
-11 18 -11 62 0 80 5 8 4 11 -2 7 -6 -4 -12 10 -16 36 -6 51 -10 70 -18 77 -3
3 -15 21 -27 41 -42 70 -184 145 -292 155 -205 20 -451 -18 -709 -108 -30 -10
-60 -17 -68 -14 -8 3 -12 2 -9 -3 5 -7 -42 -31 -60 -31 -1 0 -5 15 -9 33 -18
86 -108 342 -156 444 -17 35 -29 66 -29 69 1 4 -2 10 -7 13 -5 3 -24 32 -42
64 -108 190 -245 296 -403 311 -20 2 -39 2 -41 -1z m53 -124 c0 -5 5 -7 10 -4
14 9 52 -4 45 -16 -3 -5 0 -6 8 -4 17 7 69 -33 61 -47 -5 -7 -2 -8 5 -4 13 8
43 -23 35 -36 -3 -4 1 -6 8 -3 7 2 24 -11 38 -31 14 -19 30 -41 35 -47 50 -56
148 -233 139 -249 -4 -6 -3 -9 2 -5 12 7 97 -192 90 -210 -3 -8 -2 -12 3 -9
11 7 45 -120 35 -135 -4 -8 -3 -9 4 -5 7 4 12 3 12 -3 0 -5 3 -16 6 -25 4 -11
-23 -30 -113 -75 -138 -71 -276 -145 -350 -189 -29 -17 -53 -29 -53 -26 0 3
-7 -1 -15 -10 -14 -14 -19 -13 -53 6 -20 11 -62 34 -92 51 -30 16 -59 33 -65
37 -5 4 -86 47 -180 95 -93 48 -173 91 -177 94 -11 10 3 52 15 44 6 -3 7 -1 3
6 -9 14 12 113 22 107 4 -2 8 7 8 20 2 24 42 134 53 144 3 3 7 12 9 20 2 8 17
44 33 80 24 50 32 61 40 50 8 -11 9 -10 4 7 -5 17 10 47 60 123 36 55 71 98
76 94 5 -3 9 -2 8 3 -4 23 2 35 17 29 8 -3 12 -2 9 3 -7 12 60 78 100 99 25
13 70 27 98 31 4 1 7 -4 7 -10z m-1411 -783 c9 -6 12 -5 8 1 -4 6 10 10 34 11
29 1 38 -1 33 -11 -5 -9 -4 -9 7 1 7 6 19 12 27 12 8 0 10 -5 6 -12 -6 -10 -5
-10 7 -1 9 7 26 10 40 8 13 -3 47 -8 74 -11 63 -7 155 -23 175 -31 15 -6 35
-10 71 -12 12 -1 17 -5 13 -13 -4 -7 -3 -8 4 -4 6 4 31 1 54 -5 24 -7 49 -13
55 -15 25 -5 73 -29 73 -37 0 -5 4 -6 9 -3 12 8 41 -4 41 -16 0 -5 -4 -6 -10
-3 -6 3 -7 -1 -4 -9 3 -9 1 -45 -5 -81 -6 -36 -14 -91 -17 -122 -4 -32 -11
-61 -18 -65 -8 -6 -7 -8 2 -8 7 0 11 -4 8 -8 -3 -4 -8 -42 -11 -83 -4 -40 -9
-81 -12 -89 -3 -8 -6 -44 -8 -80 -1 -36 -3 -65 -4 -65 -1 0 -3 -27 -4 -61 -3
-66 0 -62 -92 -139 -33 -27 -62 -53 -63 -58 -2 -4 -8 -5 -13 -1 -5 3 -9 1 -9
-3 0 -5 -41 -44 -91 -88 -50 -43 -98 -85 -106 -93 -13 -14 -23 -6 -91 64 -86
90 -172 188 -186 213 -5 9 -12 18 -16 21 -12 9 -106 154 -139 215 -18 33 -37
66 -43 72 -6 7 -8 20 -4 28 3 9 2 14 -3 11 -19 -12 -102 225 -105 296 0 27 -4
48 -7 48 -16 0 9 108 32 142 22 31 125 81 151 74 10 -2 18 0 18 5 0 5 14 7 30
5 17 -2 30 0 30 4 0 9 42 7 59 -4z m2823 1 c6 -9 8 -9 8 1 0 7 4 10 10 7 5 -3
29 -8 52 -11 113 -13 201 -66 197 -118 0 -5 4 -12 10 -15 9 -6 11 -27 11 -124
0 -16 -4 -26 -9 -23 -5 3 -7 -2 -4 -13 11 -41 -89 -307 -110 -294 -6 3 -7 1
-3 -6 13 -20 -142 -281 -166 -281 -6 0 -8 -3 -5 -7 11 -10 -51 -84 -197 -238
l-86 -89 -47 44 c-26 25 -52 50 -58 55 -7 6 -39 33 -71 61 -33 29 -86 73 -119
100 -86 69 -87 71 -90 112 -5 69 -16 207 -21 242 -4 33 -10 92 -18 170 -4 37
-14 114 -21 165 -2 17 -9 52 -14 80 -5 27 -9 50 -8 51 50 22 109 44 129 48 15
2 36 10 48 16 12 6 28 9 35 6 8 -3 15 -1 17 5 2 5 19 11 39 13 20 2 40 6 45 9
5 3 29 8 54 12 25 4 48 9 52 11 5 3 8 -1 8 -8 0 -9 2 -10 8 -2 9 16 43 21 61
10 10 -7 12 -6 6 4 -6 10 -3 12 12 8 12 -3 25 -3 31 1 20 12 206 11 214 -2z
m-1950 -189 c23 -13 46 -27 49 -31 3 -5 9 -8 13 -7 15 3 64 -25 59 -34 -3 -5
-1 -6 5 -2 14 9 63 -14 55 -27 -3 -6 -2 -7 4 -4 5 3 56 -21 113 -53 57 -33
107 -60 111 -60 4 0 11 -5 15 -12 5 -8 2 -9 -9 -5 -9 3 -16 2 -14 -2 1 -5 -48
-42 -110 -83 -61 -40 -144 -95 -183 -123 -40 -27 -80 -54 -89 -60 -9 -5 -18
-12 -21 -15 -17 -17 -80 -60 -80 -54 0 3 -9 -4 -20 -17 l-20 -24 6 105 c3 58
7 121 9 140 2 19 5 52 6 72 1 20 5 36 8 34 3 -2 7 19 7 47 2 79 15 149 31 176
8 13 10 20 4 17 -6 -4 -11 -2 -11 3 0 6 4 11 10 11 5 0 7 7 4 15 -8 20 -4 19
48 -7z m1114 -66 c3 -26 8 -56 10 -67 10 -50 19 -145 19 -192 0 -28 3 -49 7
-47 4 3 6 -16 5 -41 -1 -25 0 -45 3 -45 3 0 6 -32 7 -70 2 -39 -1 -70 -5 -70
-5 0 -18 9 -30 20 -12 11 -26 20 -31 20 -5 0 -17 10 -25 22 -9 12 -16 19 -16
15 0 -6 -92 56 -135 90 -25 20 -253 169 -278 182 -15 8 -26 15 -25 16 9 7 158
95 184 108 17 9 34 13 38 10 3 -4 6 -1 6 5 0 11 175 102 197 102 7 0 13 4 13
9 0 5 8 11 18 13 20 4 29 -14 38 -80z m-531 -268 c30 -20 55 -41 55 -45 0 -5
6 -8 13 -6 6 1 11 -4 9 -11 -1 -8 2 -11 7 -7 14 8 82 -38 76 -52 -2 -7 2 -10
11 -6 8 3 25 -3 37 -14 12 -11 35 -27 50 -37 16 -9 25 -22 21 -28 -4 -7 -3 -8
4 -4 10 6 242 -148 250 -166 2 -5 9 -8 16 -8 7 0 21 -9 31 -20 17 -19 14 -24
-10 -21 -5 1 -3 -4 5 -11 12 -10 15 -40 16 -138 0 -77 -4 -128 -10 -132 -7 -5
-7 -8 -1 -8 12 0 14 -259 2 -277 -5 -7 -4 -13 1 -13 12 0 7 -79 -5 -90 -7 -7
-244 -174 -287 -203 -10 -6 -24 -16 -30 -22 -12 -10 -34 -26 -211 -146 -96
-65 -108 -71 -131 -60 -14 6 -22 16 -19 21 3 5 0 7 -7 5 -8 -3 -23 4 -35 15
-12 11 -24 20 -27 20 -5 0 -246 166 -271 187 -5 4 -30 22 -55 38 -25 17 -49
33 -55 38 -5 4 -44 31 -85 61 l-75 54 0 337 c1 317 2 338 19 351 11 7 23 11
29 7 6 -3 7 -1 3 5 -4 7 3 17 18 24 14 6 26 15 26 20 0 4 7 8 15 8 8 0 15 5
15 11 0 6 7 8 16 5 8 -3 13 -2 9 3 -3 5 12 20 32 32 21 13 41 27 44 32 4 5 12
6 19 2 8 -5 11 -4 7 2 -9 15 38 44 60 37 12 -4 14 -3 6 3 -9 6 1 19 37 46 27
20 54 37 59 37 5 0 11 3 13 8 5 12 131 95 144 95 7 0 12 4 11 8 -2 8 51 47 66
48 4 1 32 -15 62 -35z m-822 -752 c2 -270 4 -262 -48 -215 -12 10 -41 34 -65
53 -43 33 -83 67 -157 136 l-34 31 57 49 c177 153 219 185 228 176 4 -4 7 -2
6 3 -4 17 0 29 6 23 3 -4 6 -119 7 -256z m1539 245 c7 -7 26 -20 41 -30 15
-10 25 -23 21 -29 -4 -7 -3 -8 4 -4 7 4 12 2 12 -3 0 -6 6 -10 13 -8 6 1 11
-4 9 -11 -1 -8 2 -11 7 -8 5 4 14 -2 20 -11 5 -10 13 -18 18 -18 4 0 7 -3 6
-7 -2 -5 1 -7 5 -5 5 1 37 -22 71 -52 l62 -54 -53 -49 c-29 -27 -66 -59 -81
-71 -16 -12 -34 -27 -41 -33 -43 -40 -129 -105 -133 -101 -2 3 0 14 6 25 7 13
7 23 -2 32 -9 10 -9 14 1 17 6 3 9 9 6 14 -5 9 -8 289 -4 314 1 6 2 14 1 19
-4 22 -8 86 -5 86 1 0 9 -6 16 -13z m-1862 -353 c48 -45 72 -65 109 -93 17
-13 31 -30 31 -37 0 -8 3 -13 8 -13 21 4 32 -3 32 -18 0 -9 3 -14 6 -10 4 3
13 -1 21 -9 8 -8 30 -26 49 -40 18 -15 31 -31 27 -37 -3 -5 -2 -7 4 -4 23 14
43 -19 48 -78 10 -127 16 -186 40 -410 4 -33 10 -79 14 -102 5 -27 4 -46 -3
-54 -8 -9 -8 -10 0 -6 7 4 14 -2 17 -13 3 -11 0 -20 -5 -20 -6 0 -5 -6 2 -15
7 -8 10 -26 8 -40 -3 -13 -1 -22 3 -19 5 3 9 1 9 -5 0 -8 -35 -25 -50 -23 -3
0 -14 -5 -25 -11 -11 -6 -22 -12 -25 -12 -3 -1 -36 -11 -75 -23 -61 -18 -120
-33 -190 -48 -11 -2 -40 -7 -65 -10 -25 -3 -49 -8 -53 -11 -5 -3 -70 -6 -145
-8 -122 -3 -168 0 -263 18 -72 14 -145 78 -155 136 -3 20 -8 44 -11 54 -2 9
-1 17 4 17 4 0 8 17 7 37 -1 50 6 74 20 66 8 -4 8 -3 0 6 -12 14 33 164 47
155 5 -3 6 2 3 10 -3 9 6 36 20 62 14 26 26 53 26 60 0 8 5 14 10 14 6 0 10 5
10 11 0 22 93 168 103 162 6 -3 7 -2 4 4 -10 17 64 118 77 105 4 -3 5 0 2 8
-4 9 12 35 39 65 25 28 73 80 106 117 34 38 65 65 70 62 5 -3 8 -2 7 3 -5 13
26 42 37 35 6 -3 26 -21 45 -38z m2364 -103 c-1 -3 7 -12 18 -19 10 -7 15 -18
12 -24 -4 -6 -2 -8 3 -5 6 4 21 -8 34 -25 13 -17 29 -36 34 -42 30 -33 63 -84
58 -90 -4 -3 -1 -6 5 -6 17 0 85 -108 76 -121 -4 -7 -3 -9 3 -6 13 8 106 -169
97 -185 -4 -6 -3 -8 3 -5 12 7 36 -50 28 -63 -3 -4 1 -10 9 -13 7 -3 17 -23
21 -44 5 -21 10 -45 12 -53 2 -8 4 -24 6 -35 1 -11 6 -23 10 -26 5 -3 8 -36 8
-73 0 -178 -108 -238 -417 -231 -78 2 -150 5 -161 8 -10 3 -34 8 -53 11 -19 3
-48 8 -65 11 -114 22 -337 94 -329 106 3 5 -2 6 -12 2 -12 -5 -15 -2 -11 13 6
20 16 78 22 129 2 17 6 46 9 65 3 19 8 60 11 90 3 30 8 69 11 87 2 17 7 62 10
100 3 37 10 73 15 80 7 7 6 14 -1 18 -6 3 -7 12 -3 18 4 6 6 26 5 45 -2 25 1
32 10 26 10 -6 10 -5 2 7 -16 21 -6 71 18 88 11 8 30 25 41 38 11 12 24 23 29
23 4 0 25 16 45 36 63 60 110 94 118 86 5 -4 5 -2 2 4 -4 7 9 24 29 39 20 15
49 40 66 57 l30 29 71 -72 c40 -39 71 -74 71 -78z m-1901 -294 c-3 -5 -2 -7 4
-4 12 8 83 -39 83 -55 0 -6 3 -8 6 -5 7 7 136 -80 142 -95 2 -4 10 -8 18 -8 8
0 14 -3 14 -8 0 -4 20 -18 45 -32 25 -14 45 -28 45 -32 0 -5 5 -8 10 -8 12 0
124 -72 128 -82 2 -5 11 -8 20 -8 10 0 -36 -32 -101 -70 -65 -39 -124 -67
-130 -64 -7 4 -8 3 -4 -2 5 -5 -41 -33 -110 -66 -80 -38 -120 -52 -125 -45 -3
7 -9 32 -12 57 -3 25 -8 58 -11 74 -3 15 -8 49 -11 75 -3 25 -7 62 -9 81 -2
19 -7 62 -10 94 -3 33 -8 64 -11 68 -3 4 0 8 6 8 6 0 8 5 4 11 -3 6 -8 43 -11
82 -5 65 -4 70 11 58 9 -7 13 -18 9 -24z m1261 -64 c-4 -94 -9 -162 -18 -228
-2 -16 -7 -55 -10 -85 -4 -30 -8 -62 -10 -70 -1 -8 -7 -37 -11 -65 -5 -27 -10
-53 -11 -57 -1 -5 -2 -13 -3 -20 -1 -9 -4 -9 -13 0 -7 7 -20 12 -30 12 -10 0
-18 5 -18 12 0 6 -3 9 -6 5 -4 -3 -54 19 -113 50 -58 31 -123 64 -143 75 -21
10 -38 23 -38 29 0 6 -4 8 -9 5 -5 -3 -19 2 -32 12 -13 10 -37 24 -52 32 -25
12 -26 15 -10 24 10 6 22 11 26 11 4 0 11 5 15 12 4 6 13 13 21 15 8 2 24 12
36 23 13 12 36 27 52 35 15 8 35 21 43 28 8 7 18 12 23 12 4 0 16 8 26 18 42
37 52 43 64 36 6 -4 9 -3 4 1 -9 11 43 46 56 38 6 -3 7 -2 4 4 -3 5 27 33 68
62 41 28 77 56 80 61 12 20 13 8 9 -87z m-524 -403 c8 -5 30 -17 48 -26 17 -9
32 -21 32 -26 0 -5 4 -7 9 -3 5 3 36 -11 68 -30 32 -19 63 -35 69 -35 5 0 21
-10 34 -22 14 -13 25 -21 25 -18 1 8 154 -64 155 -73 0 -5 -4 -5 -10 -2 -6 4
-7 -1 -3 -10 3 -10 0 -21 -8 -26 -11 -6 -11 -9 -1 -9 9 0 10 -5 4 -17 -5 -10
-15 -40 -21 -68 -7 -27 -18 -63 -26 -80 -7 -16 -24 -58 -36 -92 -13 -34 -28
-59 -33 -56 -5 3 -6 1 -3 -4 9 -14 -22 -75 -34 -68 -5 4 -6 -1 -3 -10 4 -9 -5
-33 -20 -55 -14 -22 -26 -42 -26 -46 0 -3 -19 -33 -42 -67 -185 -267 -312
-305 -471 -142 -56 56 -164 205 -150 205 4 0 3 4 -3 8 -14 8 -97 164 -109 202
-4 14 -16 43 -26 65 -25 55 -76 216 -81 251 -2 23 1 29 14 28 10 -1 16 1 14 5
-3 4 19 18 47 31 29 13 55 29 59 35 4 5 8 7 8 3 0 -4 23 6 50 22 28 16 50 26
50 22 0 -4 4 -2 8 3 4 6 25 19 47 30 22 11 47 25 55 31 38 28 169 92 176 86 4
-4 4 -2 1 5 -19 32 42 11 133 -47z"/>
<path d="M2556 3192 c-3 -5 1 -9 9 -9 8 0 12 4 9 9 -3 4 -7 8 -9 8 -2 0 -6 -4
-9 -8z"/>
<path d="M2455 2831 c-3 -5 -2 -12 3 -15 5 -3 9 1 9 9 0 17 -3 19 -12 6z"/>
<path d="M2500 2790 c-9 -6 -10 -10 -3 -10 6 0 15 5 18 10 8 12 4 12 -15 0z"/>
<path d="M2144 2592 c-70 -35 -108 -103 -100 -179 3 -38 32 -93 62 -118 9 -7
1 -43 -31 -140 -65 -196 -66 -176 5 -173 33 2 60 -1 60 -5 0 -5 4 -6 8 -3 13
8 227 10 239 3 18 -11 23 7 13 39 -6 16 -28 83 -49 149 l-39 120 29 27 c16 16
29 30 29 33 0 22 1 26 8 22 4 -3 8 20 8 51 3 88 -33 145 -108 176 -44 19 -96
18 -134 -2z"/>
<path d="M1113 2105 c0 -8 4 -12 9 -9 5 3 6 10 3 15 -9 13 -12 11 -12 -6z"/>
<path d="M859 1903 c-13 -16 -12 -17 4 -4 9 7 17 15 17 17 0 8 -8 3 -21 -13z"/>
<path d="M1436 1803 c-6 -14 -5 -15 5 -6 7 7 10 15 7 18 -3 3 -9 -2 -12 -12z"/>
<path d="M3760 1596 c0 -2 8 -10 18 -17 15 -13 16 -12 3 4 -13 16 -21 21 -21
13z"/>
<path d="M1616 1691 c-3 -5 2 -15 12 -22 15 -12 16 -12 5 2 -7 9 -10 19 -6 22
3 4 4 7 0 7 -3 0 -8 -4 -11 -9z"/>
<path d="M2710 1590 c0 -5 5 -10 11 -10 5 0 7 5 4 10 -3 6 -8 10 -11 10 -2 0
-4 -4 -4 -10z"/>
<path d="M1090 831 c0 -6 4 -13 10 -16 6 -3 7 1 4 9 -7 18 -14 21 -14 7z"/>
</g>
</svg>
